<?xml version="1.0"?>
<svg xmlns="http://www.w3.org/2000/svg" height="512px" viewBox="0 0 192 192" width="512px"><g><g id="_16-confident" data-name="16-confident"><g id="Glyph"><path d="m188.818 81.842a8 8 0 0 0 -6.458-5.442l-54.716-7.951-24.47-49.58a8 8 0 0 0 -14.348 0l-24.47 49.58-54.716 7.951a8 8 0 0 0 -4.433 13.642l39.593 38.594-9.347 54.5a8 8 0 0 0 11.608 8.433l48.939-25.734 48.939 25.729a8 8 0 0 0 11.608-8.433l-9.347-54.495 39.593-38.594a8 8 0 0 0 2.025-8.2z" data-original="#000000" class="active-path" data-old_color="#000000" fill="#AA582B"/><path d="m189.311 42.833a10.417 10.417 0 0 1 -10.4-10.4 2.689 2.689 0 1 0 -5.377 0 10.417 10.417 0 0 1 -10.4 10.4 2.689 2.689 0 1 0 0 5.378 10.416 10.416 0 0 1 10.405 10.4 2.689 2.689 0 1 0 5.377 0 10.416 10.416 0 0 1 10.405-10.4 2.689 2.689 0 0 0 0-5.378z" data-original="#000000" class="active-path" data-old_color="#000000" fill="#AA582B"/><path d="m149.311 12.833a10.417 10.417 0 0 1 -10.4-10.4 2.689 2.689 0 1 0 -5.377 0 10.417 10.417 0 0 1 -10.4 10.4 2.689 2.689 0 1 0 0 5.378 10.416 10.416 0 0 1 10.405 10.4 2.689 2.689 0 1 0 5.377 0 10.416 10.416 0 0 1 10.405-10.4 2.689 2.689 0 0 0 0-5.378z" data-original="#000000" class="active-path" data-old_color="#000000" fill="#AA582B"/><path d="m61.311 37.833a10.417 10.417 0 0 1 -10.4-10.4 2.689 2.689 0 1 0 -5.377 0 10.417 10.417 0 0 1 -10.4 10.4 2.689 2.689 0 0 0 0 5.378 10.416 10.416 0 0 1 10.405 10.4 2.689 2.689 0 1 0 5.377 0 10.416 10.416 0 0 1 10.405-10.4 2.689 2.689 0 0 0 0-5.378z" data-original="#000000" class="active-path" data-old_color="#000000" fill="#AA582B"/></g></g></g> </svg>
