<?xml version="1.0"?>
<svg xmlns="http://www.w3.org/2000/svg" id="Capa_1" enable-background="new 0 0 511.858 511.858" height="512px" viewBox="0 0 511.858 511.858" width="512px" class=""><g><path d="m494.959 120.593c18.263-33.465 15.208-71.702-8.393-95.301-23.599-23.6-61.835-26.655-95.301-8.393-43.646-18.41-95.545-21.924-147.144-9.823-55.69 13.062-107.941 42.779-151.103 85.942-43.162 43.162-72.881 95.413-85.942 151.104-12.103 51.6-8.587 103.499 9.822 147.144-18.262 33.465-15.207 71.702 8.393 95.302 23.601 23.599 61.837 26.654 95.301 8.393 26.583 11.212 56.219 16.899 86.994 16.898 19.753 0 39.978-2.345 60.149-7.076 55.691-13.062 107.942-42.779 151.104-85.942 43.162-43.162 72.881-95.413 85.941-151.104 12.104-51.601 8.588-103.5-9.821-147.144zm-130.944 180.39h30.024v30h-30.024zm30.024-60.048h30.024v30h-30.024z" data-original="#000000" class="active-path" data-old_color="#000000" fill="#AA582B"/></g> </svg>
